<svg version="1.1" id="Layer_1" xmlns="http://www.w3.org/2000/svg" x="0px" y="0px" viewBox="0 0 211.5 210">
<style type="text/css">
	.background{fill:#00AAEB;}
	.compass{fill:#FFFFFF;}
</style>
<g id="XMLID_37_">
	<path id="XMLID_1_" class="background" d="M209.5,177.5c0,17.2-13.9,31.1-31.1,31.1H33.6c-17.2,0-31.1-13.9-31.1-31.1V32.7
		c0-17.2,13.9-31.1,31.1-31.1h144.8c17.2,0,31.1,13.9,31.1,31.1V177.5z"/>
	<path id="XMLID_38_" class="compass" d="M105.1,172.9l-15.9-50.8l-50.8-15.9l50.8-15.9l15.9-50.8L121,90.4l50.8,15.9L121,122.1
		L105.1,172.9z M127.6,83.7l5.5,1.7L146.3,65l-20.5,13.2L127.6,83.7z M82.6,83.7l1.7-5.5L63.8,65l13.2,20.4L82.6,83.7z M127.6,128.8
		l-1.7,5.5l20.5,13.2l-13.2-20.5L127.6,128.8z M82.6,128.8l-5.5-1.7l-13.2,20.5l20.4-13.2L82.6,128.8z M182.9,106.3
		c0,42.9-34.8,77.8-77.8,77.8c-42.9,0-77.8-34.8-77.8-77.8c0-43,34.8-77.8,77.8-77.8C148,28.5,182.9,63.3,182.9,106.3L182.9,106.3z
		 M171.8,106.3c0-36.8-29.9-66.7-66.7-66.7c-36.8,0-66.7,29.9-66.7,66.7c0,36.8,29.9,66.7,66.7,66.7
		C141.9,172.9,171.8,143,171.8,106.3L171.8,106.3z M116.2,17.4"/>
</g>
</svg>
