<svg xmlns="http://www.w3.org/2000/svg" version="1.1" width="156.26315763056118" height="157.36842168665328">
<style type="text/css">
	.compass{fill:#666666;}
</style>

<g id="XMLID_37_" class="">

	<path id="XMLID_38_" class="compass" d="M78.32632414102554,146.02631702423096 l-15.9,-50.8 l-50.8,-15.9 l50.8,-15.9 l15.9,-50.8 L94.22632414102554,63.52631702423096 l50.8,15.9 L94.22632414102554,95.22631702423095 L78.32632414102554,146.02631702423096 zM100.82632414102554,56.82631702423096 l5.5,1.7000000000000002 L119.52632414102555,38.12631702423096 l-20.5,13.2 L100.82632414102554,56.82631702423096 zM55.82632414102554,56.82631702423096 l1.7000000000000002,-5.5 L37.02632414102554,38.12631702423096 l13.2,20.4 L55.82632414102554,56.82631702423096 zM100.82632414102554,101.92631702423097 l-1.7000000000000002,5.5 l20.5,13.2 l-13.2,-20.5 L100.82632414102554,101.92631702423097 zM55.82632414102554,101.92631702423097 l-5.5,-1.7000000000000002 l-13.2,20.5 l20.4,-13.2 L55.82632414102554,101.92631702423097 zM156.12632414102555,79.42631702423095 c0,42.9 -34.8,77.8 -77.8,77.8 c-42.9,0 -77.8,-34.8 -77.8,-77.8 c0,-43 34.8,-77.8 77.8,-77.8 C121.22632414102554,1.626317024230957 156.12632414102555,36.426317024230954 156.12632414102555,79.42631702423095 L156.12632414102555,79.42631702423095 zM145.02632414102555,79.42631702423095 c0,-36.8 -29.9,-66.7 -66.7,-66.7 c-36.8,0 -66.7,29.9 -66.7,66.7 c0,36.8 29.9,66.7 66.7,66.7 C115.12632414102555,146.02631702423096 145.02632414102555,116.12631702423096 145.02632414102555,79.42631702423095 L145.02632414102555,79.42631702423095 zM89.42632414102555,-9.473682975769044 "/>
</g></svg>